<?xml version="1.0" ?><!DOCTYPE svg  PUBLIC '-//W3C//DTD SVG 1.1//EN'  'http://www.w3.org/Graphics/SVG/1.1/DTD/svg11.dtd'><svg height="512px" style="enable-background:new 0 0 512 512;" version="1.1" viewBox="0 0 512 512" width="512px" xml:space="preserve" xmlns="http://www.w3.org/2000/svg" xmlns:xlink="http://www.w3.org/1999/xlink"><g id="cryptocurrency__x2C__crypto__x2C__currency__x2C__money_x2C__coin__x2C__lite__x2C___18__x2C_"><g><g><path d="M94.858,103.614c-0.97,1.617-1.308,3.479-0.872,5.342c1.555,6.029,9.365,7.305,12.666,2.009     c12.375-20.047,30.574-35.779,50.811-47.298c44.987-25.341,101.232-31.663,150.684-17.155     c21.4,6.419,41.297,16.566,57.557,32.006l-21.018,20.438l71.971,22.597L397.002,48.08l-21.256,20.684     C344.639,39.11,301.012,25.924,258.89,24.896c-37.708-0.784-75.271,7.939-108.221,26.517     C128.296,64.205,108.448,81.41,94.858,103.614L94.858,103.614z" style="fill:#010101;"/><path d="M415.586,408.388c3.203-5.296-1.357-11.766-7.375-10.54c-1.893,0.441-3.398,1.472-4.414,3.187     c-12.426,20.096-30.479,35.731-50.811,47.299c-44.938,25.342-101.233,31.663-150.684,17.155     c-21.399-6.42-41.298-16.615-57.556-32.006l21.016-20.439l-71.971-22.597l19.654,73.474l21.257-20.685     c31.06,29.653,74.735,42.84,116.856,43.868c37.661,0.785,75.267-7.939,108.22-26.565     C382.055,447.843,402.049,430.541,415.586,408.388L415.586,408.388z" style="fill:#010101;"/><path d="M384.188,349.08c26.063,0,49.695-10.688,66.779-27.939c17.08-17.253,27.658-41.125,27.658-67.443     c0-26.371-10.578-50.191-27.658-67.445c-17.084-17.254-40.717-27.938-66.779-27.938c-26.057,0-49.689,10.684-66.771,27.938     c-17.084,17.254-27.664,41.074-27.664,67.445c0,26.318,10.58,50.19,27.664,67.443C334.498,338.393,358.131,349.08,384.188,349.08     L384.188,349.08z M463.244,333.541c-20.238,20.39-48.189,33.036-79.057,33.036c-30.861,0-58.814-12.646-79.051-33.036     c-20.236-20.439-32.709-48.671-32.709-79.844c0-31.173,12.473-59.406,32.709-79.845c20.236-20.441,48.189-33.086,79.051-33.086     c30.867,0,58.818,12.646,79.057,33.086C483.48,194.291,496,222.524,496,253.697C496,284.87,483.48,313.102,463.244,333.541     L463.244,333.541z" style="fill:#010101;"/><path d="M127.765,349.08c26.107,0,49.69-10.688,66.773-27.939c17.084-17.253,27.663-41.125,27.663-67.443     c0-26.371-10.579-50.191-27.663-67.445c-17.083-17.254-40.666-27.938-66.773-27.938c-26.062,0-49.647,10.684-66.777,27.938     c-17.084,17.254-27.613,41.074-27.613,67.445c0,26.318,10.529,50.19,27.613,67.443C78.117,338.393,101.703,349.08,127.765,349.08     L127.765,349.08z M206.816,333.541c-20.235,20.39-48.189,33.036-79.052,33.036c-30.866,0-58.82-12.646-79.056-33.036     C28.522,313.102,16,284.87,16,253.697c0-31.173,12.522-59.406,32.709-79.845c20.235-20.441,48.189-33.086,79.056-33.086     c30.862,0,58.816,12.646,79.052,33.086c20.236,20.438,32.755,48.671,32.755,79.845     C239.571,284.87,227.053,313.102,206.816,333.541L206.816,333.541z" style="fill:#010101;"/><path d="M132.663,292.662c4.37-0.589,7.768-2.205,10.048-4.852c2.327-2.55,3.494-6.028,3.494-10.392     c0-3.873-1.117-7.058-3.301-9.559c-2.136-2.548-5.58-4.509-10.241-5.931V292.662z M123.057,236.982V209.24     c-4.173,0.539-7.377,1.959-9.561,4.363c-2.233,2.352-3.3,5.538-3.3,9.509c0,3.283,1.017,6.078,3.106,8.282     C115.339,233.65,118.592,235.512,123.057,236.982L123.057,236.982z M123.057,326.188v-15.683     c-12.182-0.736-21.257-4.313-27.275-10.687c-6.016-6.322-9.074-15.537-9.074-27.546h21.644     c0.291,5.882,1.651,10.489,4.076,13.871c2.474,3.431,6.019,5.588,10.63,6.519V258.94c-12.473-3.184-21.307-7.352-26.597-12.548     c-5.289-5.146-7.907-12.204-7.907-21.174c0-9.9,3.106-17.939,9.365-23.968c6.31-6.127,14.655-9.263,25.139-9.558v-10.489h9.606     v10.489c10.482,0.541,18.638,3.726,24.51,9.558c5.871,5.833,9.074,14.067,9.656,24.655h-21.935     c-0.389-5.049-1.602-8.969-3.592-11.667c-2.039-2.694-4.901-4.214-8.64-4.509v29.702c13.251,4.167,22.616,8.921,28.004,14.313     c5.434,5.342,8.151,12.449,8.151,21.222c0,10.393-3.156,18.674-9.462,24.9c-6.311,6.176-15.191,9.753-26.693,10.783v15.536     H123.057z" style="fill:#010101;"/><path d="M250.783,117.534c1.066,1.078,1.602,2.499,1.602,3.872c0,1.373-0.535,2.794-1.602,3.872     c-14.073,14.214-9.366,9.459-23.439,23.674c-2.086,2.108-5.483,2.108-7.57,0c-2.087-2.106-2.087-5.539,0-7.646l19.701-19.9     l-19.701-19.9c-2.087-2.108-2.087-5.539,0-7.647c2.087-2.106,5.484-2.106,7.57,0C241.417,108.074,236.71,103.319,250.783,117.534     L250.783,117.534z" style="fill:#010101;"/><path d="M239.331,373.586c-1.989-2.059-1.989-5.343,0-7.401c2.036-2.01,5.29-2.01,7.279,0l7.667,7.743     l7.668-7.743c2.04-2.01,5.29-2.01,7.279,0c2.04,2.059,2.04,5.343,0,7.401l-7.619,7.695l7.619,7.744c2.04,2.06,2.04,5.344,0,7.4     c-1.989,2.01-5.239,2.01-7.279,0l-7.668-7.743l-7.667,7.743c-1.989,2.01-5.243,2.01-7.279,0c-1.989-2.057-1.989-5.341,0-7.4     l7.667-7.744L239.331,373.586z" style="fill:#010101;"/><path d="M34.491,90.821c0-2.892,2.28-5.196,5.143-5.196c2.865,0,5.146,2.304,5.146,5.196v10.931H55.6     c2.862,0,5.193,2.352,5.193,5.194c0,2.893-2.331,5.245-5.193,5.245H44.78v10.931c0,2.892-2.281,5.196-5.146,5.196     c-2.862,0-5.143-2.304-5.143-5.196V112.19h-10.87c-2.815,0-5.146-2.352-5.146-5.245c0-2.842,2.331-5.194,5.146-5.194h10.87     V90.821z" style="fill:#010101;"/><path d="M49.387,365.89c5,0,9.514,2.06,12.764,5.344c3.3,3.283,5.29,7.843,5.29,12.89     c0,5.05-1.99,9.608-5.29,12.892c-3.25,3.335-7.764,5.344-12.764,5.344c-4.995,0-9.509-2.009-12.763-5.344     c-3.25-3.283-5.29-7.842-5.29-12.892c0-5.047,2.04-9.606,5.29-12.89C39.878,367.949,44.392,365.89,49.387,365.89L49.387,365.89z      M55.794,377.655c-1.648-1.619-3.882-2.648-6.407-2.648c-2.474,0-4.754,1.029-6.355,2.648c-1.649,1.665-2.668,3.969-2.668,6.468     c0,2.55,1.019,4.805,2.668,6.471c1.602,1.618,3.882,2.648,6.355,2.648c2.525,0,4.759-1.03,6.407-2.648     c1.602-1.666,2.622-3.921,2.622-6.471C58.416,381.624,57.396,379.32,55.794,377.655L55.794,377.655z" style="fill:#010101;"/><path d="M441.744,387.703c-2.912,0-5.289-2.354-5.289-5.344c0-2.941,2.377-5.344,5.289-5.344     c19.705,0,13.15,0,32.855,0c2.912,0,5.291,2.402,5.291,5.344c0,2.99-2.379,5.344-5.291,5.344     C454.895,387.703,461.449,387.703,441.744,387.703L441.744,387.703z" style="fill:#010101;"/></g><g><polygon points="377.686,291.316 385.885,260.076 405.379,252.884      410.193,234.524 410.016,234.14 390.846,241.215 404.676,188.725 365.549,188.725 347.455,257.188 332.428,262.788      327.379,281.649 342.523,276.166 331.842,316.485 435.986,316.485 442.609,291.316    " style="fill-rule:evenodd;clip-rule:evenodd;fill:#010101;"/></g></g></g><g id="Layer_1"/></svg>