<?xml version="1.0" ?><!DOCTYPE svg  PUBLIC '-//W3C//DTD SVG 1.1//EN'  'http://www.w3.org/Graphics/SVG/1.1/DTD/svg11.dtd'><svg height="512px" style="enable-background:new 0 0 512 512;" version="1.1" viewBox="0 0 512 512" width="512px" xml:space="preserve" xmlns="http://www.w3.org/2000/svg" xmlns:xlink="http://www.w3.org/1999/xlink"><g id="cryptocurrency__x2C__crypto__x2C__currency__x2C__money_x2C__coin__x2C__lite__x2C___10__x2C_"><g><g><path d="M200.968,374.213c31.43,0,60.062-12.081,81.59-31.99     l-13.927,0.892c-5.787,0.396-11.767,0.743-17.308,1.139c-14.956,8.321-32.116,13.075-50.356,13.075     c-57.566,0-104.195-47.1-104.195-105.241c0-58.091,46.629-105.188,104.195-105.188c57.515,0,104.195,47.098,104.195,105.188     c0,19.069-5.05,36.944-13.78,52.347l14.761-5.398c0.196-0.098,0.393-0.196,0.635-0.298c2.309-1.037,4.659-1.929,7.014-2.672     c5.197-13.618,8.092-28.477,8.092-43.979c0-67.402-54.134-122.075-120.916-122.075c-66.786,0-120.915,54.673-120.915,122.075     C80.053,319.539,134.183,374.213,200.968,374.213L200.968,374.213z" style="fill-rule:evenodd;clip-rule:evenodd;fill:#010101;"/><path d="M496,343.905c0-0.298,0-0.595-0.098-0.893c0-0.297-0.098-0.595-0.196-0.889     c-0.098-0.297-0.098-0.595-0.199-0.793c-0.098-0.298-0.196-0.497-0.392-0.795c-0.099-0.246-0.196-0.442-0.392-0.74     c-0.099-0.296-0.294-0.496-0.49-0.695c-0.146-0.196-0.294-0.493-0.49-0.692c-0.195-0.199-0.392-0.396-0.639-0.595l-0.588-0.595     c-0.195-0.195-0.489-0.297-0.783-0.493c-0.196-0.102-0.393-0.298-0.686-0.398l-107.727-53.633c-0.246-0.2-0.54-0.298-0.933-0.396     c-1.861-0.693-46.288-16.393-82.62,0.098l-80.168,29.268c-0.196,0.102-0.49,0.199-0.689,0.298     c-11.473,5.348-17.551,17.236-15.102,29.764c2.453,12.433,12.406,21.197,24.909,21.791h0.196c0.784,0,4.268-0.199,40.795-2.523     c15.89-0.993,58.988-3.915,60.458-4.014c4.612-0.195,8.437-3.963,8.534-8.666c0.098-4.953-3.727-9.063-8.729-9.163     c-0.491,0-27.164,1.785-61.341,3.964c-17.111,1.088-36.233,2.375-39.423,2.574c-6.175-0.496-7.648-5.696-8.041-7.28     c-0.686-3.368,0.294-7.825,4.902-10.054l80.073-29.319c0.196-0.098,0.393-0.196,0.635-0.298     c28.146-12.922,64.873-1.287,69.236,0.102l47.953,23.869l-26.379,62.8c-12.993-8.075-28.781-10.254-43.443-5.795l-107.578,32.636     c-12.797,3.96-26.967,2.477-38.785-4.06L39.305,316.123c-6.082-3.368-4.119-9.162-3.629-10.352     c0.588-1.584,3.139-6.537,9.268-4.854l56.535,19.018c4.608,1.584,9.659-0.99,11.227-5.595c1.571-4.753-0.979-9.758-5.541-11.342     l-56.829-19.213c-0.196-0.102-0.294-0.102-0.49-0.102c-12.994-3.564-25.595,2.723-30.548,15.352     c-5.098,12.73-0.294,26.149,11.622,32.737l168.576,92.51c15.936,8.767,34.96,10.747,52.221,5.398l107.628-32.636     c9.854-2.922,20.494-1.534,29.173,4.061l54.869,34.913c0.294,0.2,0.491,0.297,0.785,0.398c0.098,0,0.098,0.099,0.195,0.099h0.099     c0.098,0.098,0.195,0.098,0.392,0.098c0.195,0.102,0.489,0.199,0.686,0.298c0.098,0,0.294,0.102,0.392,0.102     c0.2,0.098,0.494,0.098,0.689,0.195c0.098,0,0.294,0,0.392,0.101c0.393,0,0.687,0.099,1.078,0.099s0.783,0,1.176-0.099     c0.098,0,0.294,0,0.344-0.101c0.346,0,0.541-0.098,0.785-0.195c0.098,0,0.294-0.102,0.392-0.102     c0.195-0.099,0.489-0.196,0.686-0.298c0.098-0.098,0.297-0.098,0.396-0.196c0.196-0.102,0.392-0.198,0.686-0.398     c0.099-0.098,0.294-0.195,0.392-0.195c0.196-0.099,0.393-0.298,0.588-0.396c0.099-0.102,0.294-0.2,0.393-0.298l0.489-0.496     l0.392-0.396c0.196-0.199,0.294-0.398,0.393-0.594c0.102-0.099,0.199-0.298,0.297-0.396c0,0,0-0.103,0.099-0.103     c0-0.098,0.098-0.195,0.098-0.195c0.098-0.199,0.294-0.496,0.392-0.794l39.028-83.992c0.098-0.298,0.195-0.497,0.294-0.794     c0.098-0.297,0.199-0.595,0.297-0.791c0.099-0.297,0.099-0.594,0.099-0.892s0.098-0.594,0.098-0.892     C496,344.499,496,344.202,496,343.905L496,343.905z M475.503,348.463l-31.136,66.954l-31.527-20.105l27.017-64.528     L475.503,348.463z" style="fill:#010101;"/><path d="M48.917,180.426c1.078,1.09,1.615,2.476,1.567,3.913c0.047,1.386-0.49,2.823-1.567,3.912     c-14.22,14.362-9.467,9.557-23.684,23.921c-2.108,2.128-5.54,2.128-7.652,0c-2.108-2.129-2.108-5.596,0-7.726l19.909-20.107     l-19.909-20.106c-2.108-2.179-2.108-5.597,0-7.726c2.112-2.13,5.544-2.13,7.652,0C39.45,170.869,34.697,166.065,48.917,180.426     L48.917,180.426z" style="fill:#010101;"/><path d="M350.959,446.766c-2.942,0-5.345-2.426-5.345-5.396c0-2.973,2.402-5.398,5.345-5.398     c19.906,0,13.288,0,33.197,0c2.938,0,5.345,2.426,5.345,5.398c0,2.97-2.406,5.396-5.345,5.396     C364.247,446.766,370.865,446.766,350.959,446.766L350.959,446.766z" style="fill:#010101;"/><path d="M205.283,70.482c0-2.871,2.351-5.248,5.196-5.248c2.892,0,5.246,2.377,5.246,5.248v11.045h10.937     c2.892,0,5.196,2.376,5.196,5.299c0,2.871-2.305,5.25-5.196,5.25h-10.937v11.043c0,2.922-2.354,5.25-5.246,5.25     c-2.845,0-5.196-2.327-5.196-5.25V92.076h-10.937c-2.892,0-5.196-2.379-5.196-5.25c0-2.922,2.304-5.299,5.196-5.299h10.937     V70.482z" style="fill:#010101;"/><path d="M356.794,213.757c5,0,9.612,2.03,12.895,5.397c3.288,3.32,5.346,7.924,5.346,13.026     c0,5.1-2.058,9.707-5.346,13.023c-3.282,3.32-7.895,5.399-12.895,5.399c-5.051,0-9.612-2.079-12.943-5.399     c-3.287-3.317-5.345-7.924-5.345-13.023c0-5.102,2.058-9.706,5.345-13.026C347.182,215.787,351.743,213.757,356.794,213.757     L356.794,213.757z M363.216,225.642c-1.618-1.635-3.922-2.674-6.422-2.674c-2.551,0-4.804,1.039-6.473,2.674     c-1.667,1.685-2.646,4.012-2.646,6.538c0,2.525,0.979,4.854,2.646,6.537c1.669,1.633,3.922,2.674,6.473,2.674     c2.5,0,4.804-1.041,6.422-2.674c1.669-1.684,2.7-4.012,2.7-6.537C365.916,229.654,364.885,227.327,363.216,225.642     L363.216,225.642z" style="fill:#010101;"/></g><g><polygon points="190.424,289.288 199.181,255.946 219.982,248.275      225.121,228.68 224.932,228.271 204.475,235.822 219.236,179.805 177.474,179.805 158.17,252.866 142.136,258.842      136.747,278.971 152.906,273.119 141.507,316.144 252.645,316.144 259.713,289.288    " style="fill-rule:evenodd;clip-rule:evenodd;fill:#010101;"/></g></g></g><g id="Layer_1"/></svg>